<?xml version="1.0" encoding="iso-8859-1"?>
<!-- Generator: Adobe Illustrator 19.0.0, SVG Export Plug-In . SVG Version: 6.00 Build 0)  -->
<svg version="1.1" id="Capa_1" xmlns="http://www.w3.org/2000/svg" xmlns:xlink="http://www.w3.org/1999/xlink" x="0px" y="0px"
	 viewBox="0 0 512 512" style="enable-background:new 0 0 512 512;" xml:space="preserve">
<circle style="fill:#000E35;" cx="256" cy="256" r="256"/>
<g>
	<path style="fill:#C9DAFF;" d="M258.323,303.584c-23.165,0-42.851,5.789-44.596,27.22c-1.735,22.58-4.629,57.908-50.949,57.908
		c-33.593,0-52.705-18.536-52.705-57.908V177.339c0-39.372,19.111-57.908,52.12-57.908c49.225,0,50.96,37.063,51.534,52.12
		c1.16,20.846,20.856,27.22,45.171,27.22c30.689,0,45.171-8.108,45.171-42.851c0-73.54-62.537-115.242-145.345-115.242
		c-17.878,0-35.056,2.058-50.866,6.52c-45.83,12.903-80.165,45.933-86.905,107.216c-0.805,7.241-1.212,14.879-1.212,22.925v153.464
		c0,10.073,0.648,19.508,1.881,28.327c17.23,39.09,43.938,73.049,77.228,98.973h0.01c18.202,6.426,38.525,9.362,59.862,9.362
		c82.808,0,145.345-44.011,145.345-121.031C304.068,311.692,289.586,303.584,258.323,303.584z"/>
	<path style="fill:#C9DAFF;" d="M470.824,198.885h-63.76v-49.654c0-20.877,12.978-30.469,31.023-30.469h21.441
		c4.221,0,8.025-0.658,11.41-1.87c14.315-5.068,21.316-19.759,21.316-34.806c0-18.056-10.721-36.676-32.726-36.676h-40.615
		c-5.235,0-10.386,0.449-15.423,1.327c-47.052,8.108-83.884,52.966-83.884,112.086v282.122c0,15.799,18.62,26.52,42.883,26.52
		c23.698,0,44.575-10.721,44.575-26.52V260.952h63.76c14.096,0,21.431-15.235,21.431-31.033
		C492.255,214.684,484.919,198.885,470.824,198.885z"/>
</g>
<g>
</g>
<g>
</g>
<g>
</g>
<g>
</g>
<g>
</g>
<g>
</g>
<g>
</g>
<g>
</g>
<g>
</g>
<g>
</g>
<g>
</g>
<g>
</g>
<g>
</g>
<g>
</g>
<g>
</g>
</svg>
