<svg id="Layer_1" enable-background="new 0 0 512 512" height="512" viewBox="0 0 512 512" width="512" xmlns="http://www.w3.org/2000/svg"><g><g><g><g id="XMLID_1345_"><g id="XMLID_1346_"><g id="XMLID_1347_"><g id="XMLID_1348_"><g id="XMLID_1349_"><g id="XMLID_1350_"><g id="XMLID_1351_"><g id="XMLID_1352_"><g id="XMLID_1353_"><g id="XMLID_1354_"><g id="XMLID_1355_"><g id="XMLID_1356_"><g id="XMLID_1460_"><g id="XMLID_1461_"><g id="XMLID_1462_"><circle cx="256" cy="256" fill="#7343dd" r="256"/></g></g></g></g></g></g></g></g></g></g></g></g></g></g></g></g></g><path d="m512 255.589c-.062-38.373-8.578-74.751-23.76-107.4l-57.183-57.183-350.114 325.988 74.476 74.476c31 13.259 65.138 20.587 100.992 20.529 141.385-.227 255.816-115.026 255.589-256.41z" fill="#552cb7"/><g><path d="m80.943 153.771h350.113v263.223h-350.113z" fill="#f4f2ef"/><path d="m256 153.77h175.06v263.22h-175.06z" fill="#e5e1dc"/><path d="m80.943 91.006h350.113v63.679h-350.113z" fill="#46f7d5"/><path d="m80.943 91.006h63.679v63.679h-63.679z" fill="#f4a300"/><path d="m256 91.01h175.06v63.67h-175.06z" fill="#2ad1b5"/><g><g><path d="m353.844 309.47v-79.804h-20v99.804h47.967v-20z" fill="#493e49"/><path d="m162.067 250.463c11.172-3.37 21.531 4.733 21.958 5.073l7.609 6.397 12.87-15.31-7.655-6.434c-.755-.635-18.723-15.452-40.552-8.877-11.031 3.323-18.837 12.02-20.369 22.694-1.438 10.016 2.903 19.651 11.33 25.146.442.288.906.541 1.388.756.462.206 11.462 5.103 23.85 9.671 3.498 1.29 11.52 4.931 10.462 10.856-.796 4.457-6.227 9.067-13.936 9.067-7.935 0-15.569-3.198-20.423-8.555l-6.715-7.41-14.82 13.43 6.715 7.41c8.582 9.471 21.757 15.125 35.243 15.125 16.84 0 30.981-10.746 33.625-25.553 1.989-11.143-3.068-25.698-23.229-33.135-9.808-3.618-18.939-7.558-21.744-8.786-2.165-1.742-2.093-4.169-1.947-5.181.201-1.405 1.222-4.843 6.34-6.384z" fill="#655665"/><path d="m315.576 279.567c0-27.534-22.4-49.935-49.935-49.935s-49.936 22.4-49.936 49.935c0 27.534 22.401 49.935 49.936 49.935 10.321 0 19.92-3.148 27.889-8.533l12.354 12.354 14.143-14.143-12.491-12.491c5.077-7.816 8.04-17.127 8.04-27.122zm-49.934 29.936c-16.507 0-29.936-13.429-29.936-29.935s13.429-29.935 29.936-29.935c16.506 0 29.935 13.429 29.935 29.935 0 4.439-.979 8.651-2.719 12.443l-12.524-12.524-14.143 14.143 12.748 12.748c-4.01 1.996-8.523 3.125-13.297 3.125z" fill="#655665"/><path d="m307.54 306.69c5.07-7.82 8.04-17.13 8.04-27.12 0-27.54-22.4-49.94-49.94-49.94-3.3 0-6.52.32-9.64.94v20.66c3.03-1.04 6.27-1.6 9.64-1.6 16.51 0 29.94 13.43 29.94 29.94 0 4.44-.98 8.65-2.72 12.44l-12.53-12.52-14.14 14.14 12.75 12.75c-4.01 1.99-8.52 3.12-13.3 3.12-3.37 0-6.61-.56-9.64-1.6v20.66c3.12.62 6.34.94 9.64.94 10.32 0 19.92-3.14 27.89-8.53l12.35 12.35 14.15-14.14z" fill="#493e49"/></g></g></g></g></svg>